<svg width="96" height="96" viewBox="0 0 96 96" fill="none" xmlns="http://www.w3.org/2000/svg">
  <title>Chess Survivors Mad Knight</title>
  <defs>
    <linearGradient id="knightBody" x1="25" y1="12" x2="73" y2="86" gradientUnits="userSpaceOnUse">
      <stop stop-color="#333840"/>
      <stop offset="0.54" stop-color="#171A1F"/>
      <stop offset="1" stop-color="#3B0F19"/>
    </linearGradient>
    <filter id="knightShadow" x="13" y="10" width="72" height="84" color-interpolation-filters="sRGB">
      <feDropShadow dx="0" dy="7" stdDeviation="4" flood-color="#000000" flood-opacity="0.6"/>
    </filter>
  </defs>
  <g filter="url(#knightShadow)">
    <path d="M26 80H72L76 88H22L26 80Z" fill="#101216" stroke="#5B1721" stroke-width="3"/>
    <path d="M34 62L59 35L50 27L61 18L73 34L70 55L57 68L66 80H30L34 62Z" fill="url(#knightBody)" stroke="#08090B" stroke-width="3" stroke-linejoin="round"/>
    <path d="M47 28L35 18L38 36L30 41L43 47" fill="#22262D"/>
    <path d="M47 28L35 18L38 36L30 41L43 47" stroke="#08090B" stroke-width="3" stroke-linejoin="round"/>
    <path d="M52 38L61 43L54 49" stroke="#C9BEA1" stroke-width="3" stroke-linecap="round" stroke-linejoin="round" opacity="0.65"/>
    <circle cx="62" cy="35" r="4" fill="#63C7FF"/>
    <path d="M40 59L56 70" stroke="#FF445F" stroke-width="4" stroke-linecap="round"/>
  </g>
</svg>
