<svg width="96" height="96" viewBox="0 0 96 96" fill="none" xmlns="http://www.w3.org/2000/svg">
  <title>Chess Survivors Blind Bishop</title>
  <defs>
    <linearGradient id="bishopBody" x1="28" y1="12" x2="68" y2="88" gradientUnits="userSpaceOnUse">
      <stop stop-color="#C9BEA1"/>
      <stop offset="0.45" stop-color="#272B31"/>
      <stop offset="1" stop-color="#3B0F19"/>
    </linearGradient>
    <filter id="bishopShadow" x="16" y="10" width="64" height="84" color-interpolation-filters="sRGB">
      <feDropShadow dx="0" dy="7" stdDeviation="4" flood-color="#000000" flood-opacity="0.6"/>
    </filter>
  </defs>
  <g filter="url(#bishopShadow)">
    <path d="M27 80H69L74 88H22L27 80Z" fill="#101216" stroke="#5B1721" stroke-width="3"/>
    <path d="M34 62H62L68 80H28L34 62Z" fill="url(#bishopBody)" stroke="#08090B" stroke-width="3"/>
    <path d="M30 44C30 28 40 15 48 10C56 15 66 28 66 44C66 59 58 67 48 67C38 67 30 59 30 44Z" fill="url(#bishopBody)" stroke="#08090B" stroke-width="3"/>
    <path d="M58 23L39 55" stroke="#63C7FF" stroke-width="4" stroke-linecap="round" opacity="0.75"/>
    <path d="M33 39H63" stroke="#111317" stroke-width="8" stroke-linecap="round"/>
    <path d="M36 39H60" stroke="#B82537" stroke-width="3" stroke-linecap="round"/>
    <path d="M47 21C52 31 46 44 52 56" stroke="#FF445F" stroke-width="3" stroke-linecap="round"/>
  </g>
</svg>
